HIERARCHY
ROOT Hips
{
	OFFSET -0.001795 -0.223333 0.028219
	CHANNELS 6 Xposition Yposition Zposition Zrotation Yrotation Xrotation 
	JOINT LeftUpLeg
	{
		OFFSET 0.069520 -0.091406 -0.006815
		CHANNELS 3 Zrotation Yrotation Xrotation
		JOINT LeftLeg
		{
			OFFSET 0.034277 -0.375199 -0.004496
			CHANNELS 3 Zrotation Yrotation Xrotation
			JOINT LeftFoot
			{
				OFFSET -0.013596 -0.397961 -0.043693
				CHANNELS 3 Zrotation Yrotation Xrotation
				JOINT LeftToe
				{
					OFFSET 0.026358 -0.055791 0.119288
					CHANNELS 3 Zrotation Yrotation Xrotation
					End Site
					{
						OFFSET 0.000000 0.000000 0.000000
					}
				}
			}
		}
	}
	JOINT RightUpLeg
	{
		OFFSET -0.067670 -0.090522 -0.004320
		CHANNELS 3 Zrotation Yrotation Xrotation
		JOINT RightLeg
		{
			OFFSET -0.038290 -0.382569 -0.008850
			CHANNELS 3 Zrotation Yrotation Xrotation
			JOINT RightFoot
			{
				OFFSET 0.015774 -0.398415 -0.042312
				CHANNELS 3 Zrotation Yrotation Xrotation
				JOINT RightToe
				{
					OFFSET -0.025372 -0.048144 0.123348
					CHANNELS 3 Zrotation Yrotation Xrotation
					End Site
					{
						OFFSET 0.000000 0.000000 0.000000
					}
				}
			}
		}
	}
	JOINT Spine
	{
		OFFSET -0.002533 0.108963 -0.026696
		CHANNELS 3 Zrotation Yrotation Xrotation
		JOINT Spine1
		{
			OFFSET 0.005487 0.135180 0.001092
			CHANNELS 3 Zrotation Yrotation Xrotation
			JOINT Spine2
			{
				OFFSET 0.001457 0.052922 0.025425
				CHANNELS 3 Zrotation Yrotation Xrotation
				JOINT Neck
				{
					OFFSET -0.002778 0.213870 -0.042857
					CHANNELS 3 Zrotation Yrotation Xrotation
					JOINT Head
					{
						OFFSET 0.005152 0.064970 0.051349
						CHANNELS 3 Zrotation Yrotation Xrotation
						End Site
						{
							OFFSET 0.000000 0.000000 0.000000
						}
					}
				}
				JOINT LeftShoulder
				{
					OFFSET 0.078845 0.121749 -0.034090
					CHANNELS 3 Zrotation Yrotation Xrotation
					JOINT LeftArm
					{
						OFFSET 0.090977 0.030469 -0.008868
						CHANNELS 3 Zrotation Yrotation Xrotation
						JOINT LeftForeArm
						{
							OFFSET 0.259612 -0.012772 -0.027456
							CHANNELS 3 Zrotation Yrotation Xrotation
							JOINT LeftHand
							{
								OFFSET 0.249234 0.008986 -0.001171
								CHANNELS 3 Zrotation Yrotation Xrotation
								End Site
								{
									OFFSET 0.000000 0.000000 0.000000
								}
							}
						}
					}
				}
				JOINT RightShoulder
				{
					OFFSET -0.081759 0.118833 -0.038615
					CHANNELS 3 Zrotation Yrotation Xrotation
					JOINT RightArm
					{
						OFFSET -0.096012 0.032551 -0.009143
						CHANNELS 3 Zrotation Yrotation Xrotation
						JOINT RightForeArm
						{
							OFFSET -0.253742 -0.013329 -0.021401
							CHANNELS 3 Zrotation Yrotation Xrotation
							JOINT RightHand
							{
								OFFSET -0.255298 0.007772 -0.005559
								CHANNELS 3 Zrotation Yrotation Xrotation
								End Site
								{
									OFFSET 0.000000 0.000000 0.000000
								}
							}
						}
					}
				}
			}
		}
	}
}
MOTION
Frames: 16
Frame Time: 0.050000
-0.061634 0.951584 0.022240 1.074123 0.832281 6.687497 15.192874 -0.147442 -7.767753 -3.490490 0.384474 -4.623032 8.099526 18.405477 31.533285 0.000000 0.000000 0.000000 -6.003451 0.824435 -12.729152 4.387441 -0.463420 3.300875 -2.499794 -9.453375 11.312670 0.000000 0.000000 0.000000 8.073447 -3.746850 29.655242 8.958768 -2.388605 -15.398212 3.393027 -1.848420 25.923555 1.251130 0.146730 -20.177133 0.000000 0.000000 0.000000 -21.927531 -14.419336 7.646853 -43.942608 -21.014965 0.054773 -54.481922 -73.816200 48.270158 0.000000 0.000000 0.000000 8.106174 19.850262 7.920785 39.099419 16.021957 -0.650767 49.863063 74.641953 42.384236 0.000000 0.000000 0.000000 
-0.065442 0.951337 0.021955 0.961738 1.141789 6.682632 15.577174 -0.150854 -7.723762 -3.150432 0.360627 -4.722302 7.521225 17.846323 31.938836 0.000000 0.000000 0.000000 -5.446783 0.858747 -12.706637 4.583062 -0.493601 3.270178 -2.766933 -9.886772 11.109789 0.000000 0.000000 0.000000 8.174680 -3.855531 30.026665 8.804934 -2.294938 -15.784898 3.733034 -1.896542 26.162190 1.677533 -0.112351 -20.333169 0.000000 0.000000 0.000000 -21.851736 -14.708173 7.785660 -44.533685 -22.107148 0.471078 -54.290926 -74.039685 48.346942 0.000000 0.000000 0.000000 7.825117 19.978702 7.953889 39.104717 16.827578 -0.434603 47.233935 75.040725 40.557410 0.000000 0.000000 0.000000 
-0.068683 0.951131 0.020345 0.976086 1.473964 6.836559 16.059164 -0.125315 -8.362149 -3.050331 0.350025 -4.416006 6.975912 17.342393 32.462877 0.000000 0.000000 0.000000 -5.108347 0.914272 -13.388908 4.622235 -0.506340 4.158758 -3.092945 -10.471564 11.080965 0.000000 0.000000 0.000000 8.055838 -3.898917 30.378849 8.841322 -2.257695 -16.155094 3.642673 -1.864157 26.633806 1.754992 -0.117644 -20.705024 0.000000 0.000000 0.000000 -21.671792 -14.856658 7.814077 -45.153660 -24.216728 1.271713 -47.815273 -74.631931 43.416810 0.000000 0.000000 0.000000 7.901958 20.780723 8.337861 39.157800 17.978410 -0.111315 42.694300 75.898908 37.506666 0.000000 0.000000 0.000000 
-0.071365 0.951257 0.017488 0.974780 2.035494 7.052450 16.384464 -0.118280 -9.034541 -2.718459 0.324050 -4.350449 6.182491 16.599270 32.674194 0.000000 0.000000 0.000000 -4.653316 0.974604 -13.971684 4.450255 -0.489732 4.531389 -3.573042 -11.337607 11.137871 0.000000 0.000000 0.000000 7.877817 -3.944319 30.667485 8.761954 -2.230080 -16.076017 4.002824 -1.569439 26.575198 1.854944 -0.129816 -20.283770 0.000000 0.000000 0.000000 -21.829174 -15.910942 8.278289 -45.054961 -26.338653 2.101701 -36.278779 -75.451287 34.264468 0.000000 0.000000 0.000000 7.607467 21.314097 8.598030 39.654961 19.778615 0.468351 34.036973 76.576681 31.075173 0.000000 0.000000 0.000000 
-0.073810 0.951096 0.013503 1.111238 2.848185 7.027291 16.710353 -0.120204 -9.601623 -2.989567 0.335226 -4.164690 5.349228 15.840624 32.660591 0.000000 0.000000 0.000000 -4.411736 1.020750 -14.761765 4.385481 -0.495389 5.418219 -3.910896 -11.926218 11.381644 0.000000 0.000000 0.000000 7.224850 -3.863226 31.040851 9.200152 -2.330551 -16.252868 3.991803 -1.699041 26.872583 1.190019 0.292624 -19.836005 0.000000 0.000000 0.000000 -21.790133 -17.134446 8.912078 -44.166255 -29.761529 3.268848 -11.761798 -74.094645 14.273195 0.000000 0.000000 0.000000 7.264267 22.855182 9.225358 39.534624 22.203609 1.207313 18.497293 76.500623 18.654779 0.000000 0.000000 0.000000 
-0.075832 0.950590 0.009138 0.920003 3.651256 6.870172 17.028664 -0.121801 -10.099880 -2.815622 0.316734 -3.893941 4.717893 15.236731 32.040324 0.000000 0.000000 0.000000 -3.632171 1.113126 -15.347594 4.065187 -0.458315 6.286635 -4.632858 -13.216127 11.488521 0.000000 0.000000 0.000000 6.594872 -3.788651 31.413113 9.539771 -2.453300 -16.001715 4.371208 -1.373829 26.623691 0.169922 1.023761 -19.033515 0.000000 0.000000 0.000000 -20.978227 -18.464519 9.347212 -42.014588 -33.028246 4.181006 9.052925 -69.470430 -1.649318 0.000000 0.000000 0.000000 6.477329 24.084879 9.668758 39.902797 25.204983 2.247910 3.593717 75.242880 7.008463 0.000000 0.000000 0.000000 
-0.077202 0.949955 0.004705 0.733943 4.699211 6.525084 17.370644 -0.135945 -10.488573 -3.010392 0.321559 -3.663265 4.173183 14.800143 31.865370 0.000000 0.000000 0.000000 -3.491985 1.133228 -15.899174 4.303188 -0.525750 7.378786 -5.150147 -14.095492 11.793180 0.000000 0.000000 0.000000 5.903780 -3.742531 32.021932 9.949755 -2.588426 -15.844707 4.823700 -1.397094 26.341361 -0.453090 1.423202 -17.516009 0.000000 0.000000 0.000000 -19.385894 -19.601328 9.617825 -39.942118 -36.578032 5.080435 21.835428 -61.715209 -9.263066 0.000000 0.000000 0.000000 5.168116 25.776933 10.121193 41.198654 28.643192 3.665697 -8.217944 72.813352 -1.718629 0.000000 0.000000 0.000000 
-0.077685 0.949277 0.000611 0.482416 5.602419 6.177803 17.520643 -0.159959 -10.718889 -2.847757 0.303175 -3.352188 3.651251 14.257859 30.822203 0.000000 0.000000 0.000000 -3.113407 1.165493 -16.128611 4.015060 -0.493864 7.842446 -5.788204 -15.197315 12.106816 0.000000 0.000000 0.000000 5.116511 -3.584865 32.129821 10.344958 -2.801944 -15.065209 5.514399 -0.662576 25.992895 -0.741181 1.755678 -16.731620 0.000000 0.000000 0.000000 -17.560089 -20.293997 9.417282 -37.783670 -38.966975 5.439100 29.773126 -56.032790 -12.795060 0.000000 0.000000 0.000000 4.042114 26.515379 10.256069 42.339849 31.975626 5.206084 -16.865526 70.218064 -7.323746 0.000000 0.000000 0.000000 
-0.076946 0.949184 -0.003013 0.376438 6.314254 5.740743 17.550710 -0.176272 -10.894374 -3.034882 0.308961 -2.982948 3.482365 14.201532 30.890737 0.000000 0.000000 0.000000 -3.075845 1.139210 -15.949432 4.088870 -0.526816 8.263364 -6.162734 -15.813151 12.345137 0.000000 0.000000 0.000000 4.434694 -3.421020 32.100175 10.585638 -2.899035 -14.897948 6.089450 0.212962 26.116288 -0.669691 1.849764 -15.938604 0.000000 0.000000 0.000000 -15.648522 -20.218374 8.823876 -36.930587 -40.612728 5.742200 35.629639 -53.050309 -15.233982 0.000000 0.000000 0.000000 3.157662 27.007679 10.320893 44.759551 34.241078 6.767424 -21.201410 68.113937 -9.567876 0.000000 0.000000 0.000000 
-0.074960 0.949307 -0.006135 0.273158 7.110698 5.273079 17.512845 -0.194360 -11.181107 -3.229812 0.314179 -2.381251 3.296792 14.024191 30.083499 0.000000 0.000000 0.000000 -3.129908 1.081678 -15.421154 4.006224 -0.523261 7.837336 -6.835456 -16.959095 12.465389 0.000000 0.000000 0.000000 3.491102 -3.147703 31.783701 10.954671 -3.095452 -14.323782 6.440907 0.974179 26.401199 -0.805503 2.056729 -14.829185 0.000000 0.000000 0.000000 -14.287477 -19.914921 8.249986 -35.470850 -41.353860 5.534827 41.690085 -53.283020 -18.783649 0.000000 0.000000 0.000000 1.822360 27.374613 10.176185 47.460985 36.561589 8.648646 -25.584412 66.293395 -11.742411 0.000000 0.000000 0.000000 
-0.071822 0.949734 -0.008660 0.285235 7.970915 4.941577 17.183489 -0.240086 -11.319055 -3.218107 0.305519 -1.967039 2.849321 13.620508 29.710684 0.000000 0.000000 0.000000 -3.351934 1.003234 -14.857816 3.958915 -0.529594 7.605505 -7.156112 -17.441341 12.856205 0.000000 0.000000 0.000000 2.870068 -3.011045 31.656509 10.695412 -3.077765 -13.737903 6.817664 1.713244 26.428897 -0.876070 2.275275 -14.813444 0.000000 0.000000 0.000000 -12.213518 -19.252687 7.497877 -35.223814 -41.314111 5.398792 48.888285 -56.779019 -24.774056 0.000000 0.000000 0.000000 0.688650 27.278266 9.893836 49.759017 37.882223 10.161513 -28.931052 65.767803 -13.450249 0.000000 0.000000 0.000000 
-0.067904 0.949941 -0.010567 0.316432 8.495280 4.853010 16.940101 -0.269185 -11.485925 -3.426809 0.314255 -1.347569 2.967187 13.714288 28.879951 0.000000 0.000000 0.000000 -3.751452 0.940570 -14.792272 4.030620 -0.552434 7.494142 -7.497209 -17.985099 13.294951 0.000000 0.000000 0.000000 1.964610 -2.716892 31.172903 10.708085 -3.115917 -13.451764 7.021832 2.179805 26.994295 -2.116082 3.309934 -15.435724 0.000000 0.000000 0.000000 -11.546729 -18.188937 6.816759 -34.518244 -40.169128 4.805517 54.964753 -61.606127 -31.605081 0.000000 0.000000 0.000000 -0.214880 27.220636 9.640082 51.882000 38.776503 11.436402 -30.957426 66.113179 -14.613315 0.000000 0.000000 0.000000 
-0.063499 0.950341 -0.011729 0.399828 9.137528 4.629038 16.742380 -0.305875 -11.475982 -3.645955 0.325417 -1.215350 2.823794 13.568762 28.310524 0.000000 0.000000 0.000000 -4.113131 0.860520 -14.350654 4.035944 -0.564632 7.340625 -7.694317 -18.256865 13.504380 0.000000 0.000000 0.000000 1.550723 -2.645838 31.184649 10.397955 -3.032957 -13.216630 6.952893 2.336082 27.100465 -2.516904 3.657893 -15.331977 0.000000 0.000000 0.000000 -10.936933 -17.395970 6.334638 -34.751383 -38.384751 4.333909 62.977293 -67.758570 -41.720566 0.000000 0.000000 0.000000 -0.962436 27.024330 9.370998 53.898791 39.079962 12.400828 -33.708994 67.353994 -16.565221 0.000000 0.000000 0.000000 
-0.058484 0.950537 -0.012603 0.390664 9.640924 4.609403 16.635219 -0.336299 -11.512624 -3.727996 0.327266 -1.158802 2.623016 13.466877 28.614398 0.000000 0.000000 0.000000 -4.374445 0.805000 -14.012828 4.290546 -0.623508 7.278714 -8.038604 -18.805016 13.799180 0.000000 0.000000 0.000000 1.076978 -2.542541 31.145106 10.134650 -2.898973 -13.485460 6.600215 1.941584 27.623390 -3.588880 4.425053 -16.073170 0.000000 0.000000 0.000000 -10.332684 -16.489096 5.929451 -35.451158 -36.941847 4.022943 70.713334 -73.227258 -52.295961 0.000000 0.000000 0.000000 -1.889161 26.992392 9.074066 56.120412 39.744813 13.567108 -36.595936 67.871224 -18.540973 0.000000 0.000000 0.000000 
-0.052553 0.950554 -0.013291 0.314548 10.159837 4.546100 16.508948 -0.364923 -11.611059 -3.787016 0.326278 -0.872099 2.514633 13.344739 28.105110 0.000000 0.000000 0.000000 -4.690420 0.746829 -13.784707 4.477193 -0.673825 7.389494 -8.286363 -19.209088 13.586524 0.000000 0.000000 0.000000 0.652838 -2.417650 30.761716 9.755368 -2.787713 -13.248961 6.119220 1.505066 27.736214 -4.269619 4.875915 -16.229744 0.000000 0.000000 0.000000 -9.634426 -15.873997 5.660127 -36.728554 -36.116370 4.014290 80.105307 -78.302337 -65.129206 0.000000 0.000000 0.000000 -2.909272 26.895072 8.736094 57.670414 40.320979 14.511108 -41.416660 68.465872 -21.977504 0.000000 0.000000 0.000000 
-0.045255 0.950381 -0.013831 0.181247 10.691045 4.434974 16.209057 -0.403907 -11.499023 -3.779595 0.320455 -0.677189 2.058339 12.721689 27.044725 0.000000 0.000000 0.000000 -5.204718 0.665834 -13.541545 4.701539 -0.731912 7.463911 -8.527145 -19.565501 13.796915 0.000000 0.000000 0.000000 0.401455 -2.371228 30.579333 9.387912 -2.629785 -13.425807 5.560659 0.861254 28.002182 -5.143732 5.432434 -16.173323 0.000000 0.000000 0.000000 -9.446907 -15.886569 5.712214 -37.674795 -35.910972 4.120284 89.604419 -81.776268 -77.368049 0.000000 0.000000 0.000000 -4.008540 26.921057 8.410177 58.750491 41.052057 15.347384 -45.454380 67.822883 -24.478864 0.000000 0.000000 0.000000 
